<svg width="28" height="28" viewBox="0 0 28 28" fill="none" xmlns="http://www.w3.org/2000/svg">
<path fill-rule="evenodd" clip-rule="evenodd" d="M18.5074 14.2066C18.9556 13.7584 19.6823 13.7584 20.1304 14.2066L26.1813 20.2576C26.472 20.5482 26.7297 20.8058 26.9298 21.0352C27.1422 21.2788 27.3455 21.5518 27.4852 21.8889C27.794 22.6342 27.794 23.4715 27.4852 24.2168C27.3455 24.5539 27.1422 24.8268 26.9298 25.0704C26.7297 25.2998 26.472 25.5575 26.1813 25.8482L26.1315 25.8978C25.8408 26.1885 25.5831 26.4463 25.3538 26.6463C25.1102 26.8588 24.8374 27.0622 24.5001 27.2019C23.755 27.5105 22.9175 27.5105 22.1724 27.2019C21.8353 27.0622 21.5623 26.8588 21.3187 26.6463C21.0893 26.4463 20.8317 26.1886 20.541 25.8979L14.4901 19.8469C14.0419 19.3987 14.0419 18.6721 14.4901 18.2239C14.9381 17.7758 15.6648 17.7758 16.113 18.2239L22.139 24.25C22.4622 24.5731 22.6643 24.7743 22.8274 24.9166C22.9827 25.0522 23.0398 25.0768 23.0506 25.0813C23.2335 25.157 23.439 25.157 23.6218 25.0813C23.6327 25.0768 23.6898 25.0522 23.8451 24.9166C24.0083 24.7743 24.2103 24.5731 24.5335 24.25C24.8565 23.927 25.0579 23.7248 25.2002 23.5617C25.3356 23.4063 25.3604 23.3492 25.3648 23.3383C25.4405 23.1555 25.4405 22.9501 25.3648 22.7673C25.3604 22.7564 25.3356 22.6994 25.2002 22.5439C25.0579 22.3808 24.8565 22.1787 24.5335 21.8557L18.5074 15.8296C18.0593 15.3814 18.0593 14.6548 18.5074 14.2066Z" fill="#656565"/>
<path fill-rule="evenodd" clip-rule="evenodd" d="M11.7534 2.76143L20.2717 5.89978C21.4494 6.33357 22.4532 6.70334 23.1811 7.10118C23.9437 7.51799 24.6663 8.10445 24.8836 9.09324C25.1007 10.082 24.6902 10.9174 24.1726 11.6153C23.6783 12.2817 22.9219 13.038 22.0345 13.9254L20.1305 15.8294C19.6823 16.2776 18.9556 16.2776 18.5075 15.8294C18.0593 15.3813 18.0593 14.6546 18.5075 14.2064L20.3477 12.3663C21.3166 11.3973 21.9487 10.7611 22.3291 10.2481C22.6859 9.76709 22.65 9.61877 22.6425 9.58828L22.6418 9.58561L22.6412 9.58294C22.6353 9.55215 22.6057 9.4024 22.0803 9.11513C21.5198 8.80884 20.6795 8.49597 19.3936 8.02225L11.0558 4.95041C8.52559 4.01823 6.74936 3.36699 5.44292 3.08973C4.11469 2.80784 3.7028 3.00917 3.49784 3.21414C3.29286 3.41912 3.09153 3.83099 3.37341 5.15922C3.65067 6.46567 4.30193 8.2419 5.23409 10.7721L8.30594 19.11C8.77965 20.3957 9.09253 21.2362 9.39883 21.7966C9.68608 22.322 9.83583 22.3515 9.86662 22.3577L9.86931 22.3581L9.87197 22.3587C9.90247 22.3662 10.0508 22.4022 10.5318 22.0454C11.0448 21.665 11.681 21.033 12.65 20.064L14.4902 18.2239C14.9383 17.7757 15.665 17.7757 16.1132 18.2239C16.5613 18.6721 16.5613 19.3986 16.1132 19.8467L14.2091 21.7508C13.3218 22.6383 12.5653 23.3948 11.8991 23.8888C11.2011 24.4065 10.3657 24.817 9.37693 24.5999C8.38814 24.3828 7.80167 23.6599 7.38488 22.8973C6.98703 22.1695 6.61727 21.1657 6.18346 19.988L3.04512 11.4697C2.15631 9.05728 1.44421 7.12455 1.12824 5.6357C0.812733 4.14901 0.794647 2.67147 1.87491 1.59121C2.95515 0.510952 4.43271 0.529037 5.9194 0.844562C7.40823 1.16053 9.34097 1.87262 11.7534 2.76143Z" fill="#656565"/>
</svg>
