<svg width="53" height="33" viewBox="0 0 53 33" fill="none" xmlns="http://www.w3.org/2000/svg">
<rect y="4" width="43" height="24" rx="12" fill="#323232"/>
<circle cx="36.5" cy="16.5" r="16.5" fill="#656565"/>
<path d="M31.2461 11.2462C29.942 12.5526 29.171 14.2977 29.0833 16.1415C28.9957 17.9853 29.5976 19.7957 30.7718 21.22C31.946 22.6443 33.6084 23.5804 35.435 23.8459C37.2617 24.1115 39.1218 23.6875 40.653 22.6565C42.1841 21.6255 43.2765 20.0614 43.7175 18.2689C44.1584 16.4765 43.9162 14.5841 43.0381 12.9604C42.16 11.3368 40.7088 10.0982 38.9674 9.48607C37.226 8.8739 35.3191 8.93198 33.6181 9.64899C32.732 10.0238 31.9266 10.5661 31.2461 11.2462ZM36.5203 22.7258C34.8745 22.7438 33.289 22.1074 32.1125 20.9564C30.9361 19.8054 30.265 18.2342 30.247 16.5884C30.2289 14.9426 30.8654 13.3571 32.0164 12.1806C33.1674 11.0042 34.7386 10.3331 36.3844 10.3151H36.5203V22.7258Z" fill="#323232"/>
<path d="M36.5068 28C34.2317 28.0013 32.0074 27.3279 30.1152 26.0647C28.223 24.8016 26.7479 23.0056 25.8767 20.904C25.0054 18.8024 24.7771 16.4895 25.2206 14.2581C25.6642 12.0267 26.7596 9.97699 28.3683 8.36828C29.977 6.75956 32.0267 5.66416 34.2581 5.22064C36.4895 4.77713 38.8024 5.00544 40.904 5.87669C43.0056 6.74794 44.8016 8.22298 46.0647 10.1152C47.3279 12.0074 48.0013 14.2317 48 16.5068C47.9946 19.5533 46.782 22.4735 44.6278 24.6278C42.4735 26.782 39.5533 27.9946 36.5068 28ZM36.5068 6.84191C34.5953 6.84191 32.7267 7.40874 31.1373 8.47073C29.5479 9.53273 28.3091 11.0422 27.5776 12.8082C26.8461 14.5742 26.6547 16.5175 27.0276 18.3923C27.4005 20.2671 28.321 21.9892 29.6727 23.3409C31.0243 24.6926 32.7465 25.6131 34.6213 25.986C36.4961 26.3589 38.4394 26.1675 40.2054 25.436C41.9714 24.7045 43.4809 23.4657 44.5429 21.8763C45.6049 20.2869 46.1717 18.4183 46.1717 16.5068C46.1681 13.9446 45.1487 11.4884 43.3369 9.67666C41.5252 7.86492 39.069 6.8455 36.5068 6.84191Z" fill="#323232"/>
</svg>
