<svg width="21" height="21" viewBox="0 0 21 21" fill="none" xmlns="http://www.w3.org/2000/svg">
<path d="M5.02917 0.000314882C2.25759 0.000314882 0 2.25822 0 5.0298V15.0447C0 17.8162 2.25727 20.0741 5.02917 20.0741H15.044C17.8156 20.0741 20.0735 17.8162 20.0735 15.0447V5.02949C20.0735 2.2579 17.8156 0 15.044 0L5.02917 0.000314882ZM5.02917 1.68073H15.044C16.914 1.68073 18.3934 3.15986 18.3934 5.0298V15.0447C18.3934 16.9146 16.914 18.3934 15.044 18.3934H5.02917C3.15923 18.3934 1.68009 16.9146 1.68009 15.0447V5.02949C1.68009 3.15954 3.15923 1.68073 5.02917 1.68073ZM10.2342 4.24214C10.0115 4.24532 9.79922 4.3368 9.64396 4.49647C9.4887 4.65614 9.40319 4.87093 9.40624 5.09362V9.1421H5.3584C5.24618 9.13901 5.13448 9.15845 5.0299 9.19926C4.92532 9.24008 4.82999 9.30143 4.74952 9.37971C4.66906 9.458 4.6051 9.55161 4.56143 9.65503C4.51776 9.75844 4.49526 9.86958 4.49526 9.98184C4.49526 10.0941 4.51776 10.2052 4.56143 10.3086C4.6051 10.4121 4.66906 10.5057 4.74952 10.5839C4.82999 10.6622 4.92532 10.7236 5.0299 10.7644C5.13448 10.8052 5.24618 10.8246 5.3584 10.8216H9.40624V14.8694C9.40407 14.9811 9.4242 15.0921 9.46545 15.196C9.5067 15.2998 9.56824 15.3944 9.64648 15.4742C9.72471 15.5539 9.81807 15.6173 9.92109 15.6606C10.0241 15.7038 10.1347 15.7261 10.2465 15.7261C10.3582 15.7261 10.4688 15.7038 10.5718 15.6606C10.6748 15.6173 10.7682 15.5539 10.8464 15.4742C10.9247 15.3944 10.9862 15.2998 11.0275 15.196C11.0687 15.0921 11.0888 14.9811 11.0867 14.8694V10.8216H15.1345C15.2467 10.8246 15.3584 10.8052 15.463 10.7644C15.5676 10.7236 15.6629 10.6622 15.7434 10.5839C15.8238 10.5057 15.8878 10.4121 15.9315 10.3086C15.9751 10.2052 15.9976 10.0941 15.9976 9.98184C15.9976 9.86958 15.9751 9.75844 15.9315 9.65503C15.8878 9.55161 15.8238 9.458 15.7434 9.37971C15.6629 9.30143 15.5676 9.24008 15.463 9.19926C15.3584 9.15845 15.2467 9.13901 15.1345 9.1421H11.0867V5.09362C11.0882 4.98129 11.0672 4.8698 11.0249 4.76574C10.9826 4.66167 10.9198 4.56715 10.8404 4.48776C10.7609 4.40837 10.6663 4.34573 10.5622 4.30355C10.4581 4.26136 10.3465 4.24048 10.2342 4.24214Z" fill="white"/>
</svg>
