<svg width="29" height="32" viewBox="0 0 29 32" fill="none" xmlns="http://www.w3.org/2000/svg">
<path d="M15.7827 2.67783C15.2577 2.67783 14.8069 2.86563 14.4302 3.24121C14.0536 3.6168 13.8653 4.06636 13.8653 4.5899V15.7891H13.3174V6.77512C13.3174 6.25158 13.1291 5.80201 12.7524 5.42643C12.3758 5.05085 11.9249 4.86305 11.3999 4.86305C10.8749 4.86305 10.4241 5.05085 10.0474 5.42643C9.67076 5.80201 9.48244 6.25158 9.48244 6.77512V20.1596L6.8459 16.6598C6.41218 16.0794 5.83009 15.7891 5.09962 15.7891C4.4947 15.7891 3.97823 16.0025 3.55022 16.4293C3.12221 16.8561 2.90821 17.3712 2.90821 17.9744C2.90821 18.4638 3.05658 18.9019 3.35334 19.2889L9.92757 28.0298C10.3613 28.6102 10.9434 28.9005 11.6738 28.9005H23.4527C23.8407 28.9005 24.1889 28.7753 24.497 28.5249C24.8052 28.2745 24.9992 27.9558 25.0791 27.5688L26.3803 20.6547C26.4373 20.2905 26.4659 19.9547 26.4659 19.6474V11.1456C26.4659 10.622 26.2775 10.1725 25.9009 9.79687C25.5242 9.42128 25.0734 9.23349 24.5484 9.23349C24.0234 9.23349 23.5725 9.42128 23.1959 9.79687C22.8192 10.1725 22.6309 10.622 22.6309 11.1456V15.7891H22.083V6.77512C22.083 6.25158 21.8947 5.80201 21.5181 5.42643C21.1414 5.05085 20.6906 4.86305 20.1656 4.86305C19.6405 4.86305 19.1897 5.05085 18.8131 5.42643C18.4364 5.80201 18.2481 6.25158 18.2481 6.77512V15.7891H17.7002V4.5899C17.7002 4.06636 17.5119 3.6168 17.1353 3.24121C16.7586 2.86563 16.3078 2.67783 15.7827 2.67783ZM15.7827 0.492615C16.5589 0.492615 17.2751 0.694634 17.9314 1.09867C18.5876 1.50271 19.0927 2.05186 19.4465 2.74612C19.6634 2.7006 19.9031 2.67783 20.1656 2.67783C21.2955 2.67783 22.2628 3.07903 23.0675 3.88141C23.8721 4.6838 24.2745 5.64837 24.2745 6.77512V7.06534C25.4729 6.99706 26.503 7.36126 27.3647 8.15795C28.2264 8.95465 28.6573 9.95052 28.6573 11.1456V19.6474C28.6573 20.1027 28.6116 20.575 28.5203 21.0644L27.2192 27.9615C27.0594 28.8606 26.6228 29.6061 25.9095 30.1979C25.1961 30.7898 24.3772 31.0857 23.4527 31.0857H11.6738C10.989 31.0857 10.3356 30.9292 9.71356 30.6162C9.09152 30.3032 8.57506 29.8793 8.16417 29.3443L1.58994 20.6035C1.00784 19.8295 0.716797 18.9532 0.716797 17.9744C0.716797 16.7679 1.14481 15.7379 2.00083 14.8843C2.85685 14.0307 3.88978 13.6039 5.09962 13.6039C5.98988 13.6039 6.72035 13.7974 7.29103 14.1844V6.77512C7.29103 5.64837 7.69336 4.6838 8.49802 3.88141C9.30268 3.07903 10.27 2.67783 11.3999 2.67783C11.6624 2.67783 11.9021 2.7006 12.119 2.74612C12.4728 2.05186 12.9779 1.50271 13.6341 1.09867C14.2904 0.694634 15.0066 0.492615 15.7827 0.492615Z" fill="#656565"/>
</svg>
