<svg width="39" height="30" viewBox="0 0 39 30" fill="none" xmlns="http://www.w3.org/2000/svg">
<path d="M24.5086 13.064C25.98 13.9353 25.98 16.0647 24.5086 16.936L11.4589 24.6634C9.95906 25.5516 8.0625 24.4705 8.0625 22.7274L8.0625 7.2726C8.0625 5.5295 9.95906 4.44842 11.4589 5.33657L24.5086 13.064Z" stroke="#656565" stroke-width="1.5"/>
<path d="M38.9989 13.3886C38.9992 13.2396 38.9514 13.0953 38.8637 12.9806C38.8143 12.9161 38.7537 12.8627 38.6853 12.8236C38.6169 12.7845 38.542 12.7604 38.465 12.7527C38.388 12.745 38.3104 12.7538 38.2365 12.7787C38.1627 12.8036 38.0941 12.8441 38.0346 12.8977L34.8831 15.7536L31.7256 12.9997C31.6655 12.9468 31.5963 12.9072 31.522 12.8834C31.4477 12.8595 31.3698 12.8518 31.2927 12.8607C31.2157 12.8696 31.141 12.8949 31.073 12.9352C31.005 12.9754 30.9451 13.0299 30.8965 13.0954C30.843 13.1613 30.8026 13.2385 30.778 13.3222C30.7533 13.4059 30.7448 13.4942 30.7531 13.5816C30.7614 13.669 30.7862 13.7536 30.8261 13.8301C30.8659 13.9065 30.92 13.9733 30.9847 14.026L34.5126 17.105C34.6178 17.1987 34.7498 17.25 34.886 17.25C35.0222 17.25 35.1542 17.1987 35.2594 17.105L38.7873 13.9177C38.8584 13.8537 38.9147 13.7725 38.9514 13.6806C38.9882 13.5886 39.0045 13.4886 38.9989 13.3886Z" fill="#656565"/>
</svg>
