<svg width="39" height="20" viewBox="0 0 39 20" fill="none" xmlns="http://www.w3.org/2000/svg">
<path d="M38.9988 7.70954C38.9991 7.54404 38.9469 7.38366 38.8513 7.25623C38.7975 7.18451 38.7313 7.12523 38.6567 7.08177C38.5821 7.03832 38.5004 7.01155 38.4164 7.00299C38.3324 6.99444 38.2477 7.00427 38.1671 7.03193C38.0865 7.05958 38.0117 7.10451 37.9469 7.16415L34.5088 10.3373L31.0643 7.27748C30.9987 7.21865 30.9232 7.17471 30.8421 7.1482C30.7611 7.12168 30.6761 7.11312 30.5921 7.12299C30.508 7.13286 30.4266 7.16098 30.3524 7.20573C30.2782 7.25047 30.2128 7.31096 30.1599 7.38372C30.1015 7.45701 30.0574 7.54283 30.0305 7.6358C30.0036 7.72877 29.9943 7.82689 30.0034 7.92399C30.0124 8.02109 30.0395 8.11508 30.083 8.20007C30.1265 8.28505 30.1854 8.35919 30.2561 8.41783L34.1047 11.8389C34.2195 11.943 34.3634 12 34.512 12C34.6606 12 34.8045 11.943 34.9193 11.8389L38.7679 8.29742C38.8455 8.22637 38.9069 8.13611 38.947 8.03396C38.9872 7.93182 39.0049 7.82067 38.9988 7.70954Z" fill="#656565"/>
<path d="M1.755 15V13.695H4.155V6.225L2.28 7.395L1.65 6.24L4.605 4.425H5.7V13.695H7.95V15H1.755ZM14.4541 15V12.855H9.69914V11.7L14.7241 4.425H15.9991V11.55H17.5441V12.855H15.9991V15H14.4541ZM14.4541 11.55V6.855L11.2441 11.55H14.4541ZM22.4883 15.135C21.2583 15.135 20.3183 14.67 19.6683 13.74C19.0283 12.8 18.7083 11.455 18.7083 9.705C18.7083 7.925 19.0283 6.58 19.6683 5.67C20.3183 4.75 21.2583 4.29 22.4883 4.29C23.7283 4.29 24.6683 4.75 25.3083 5.67C25.9483 6.58 26.2683 7.92 26.2683 9.69C26.2683 11.45 25.9433 12.8 25.2933 13.74C24.6533 14.67 23.7183 15.135 22.4883 15.135ZM22.4883 13.845C23.2483 13.845 23.8133 13.51 24.1833 12.84C24.5533 12.17 24.7383 11.12 24.7383 9.69C24.7383 8.26 24.5533 7.22 24.1833 6.57C23.8233 5.91 23.2583 5.58 22.4883 5.58C21.7283 5.58 21.1633 5.91 20.7933 6.57C20.4233 7.23 20.2383 8.27 20.2383 9.69C20.2383 11.12 20.4233 12.17 20.7933 12.84C21.1633 13.51 21.7283 13.845 22.4883 13.845Z" fill="#656565"/>
</svg>
