<svg width="32" height="31" viewBox="0 0 32 31" fill="none" xmlns="http://www.w3.org/2000/svg">
<path d="M30.2222 0H1.77778C1.30628 0 0.854097 0.187301 0.520699 0.520699C0.187301 0.854097 0 1.30628 0 1.77778V7.11111C0 7.58261 0.187301 8.03479 0.520699 8.36819C0.854097 8.70159 1.30628 8.88889 1.77778 8.88889C2.24927 8.88889 2.70146 8.70159 3.03486 8.36819C3.36825 8.03479 3.55556 7.58261 3.55556 7.11111V3.55556H14.2222V26.6667H10.6667C10.1952 26.6667 9.74299 26.854 9.40959 27.1874C9.07619 27.5208 8.88889 27.9729 8.88889 28.4444C8.88889 28.9159 9.07619 29.3681 9.40959 29.7015C9.74299 30.0349 10.1952 30.2222 10.6667 30.2222H21.3333C21.8048 30.2222 22.257 30.0349 22.5904 29.7015C22.9238 29.3681 23.1111 28.9159 23.1111 28.4444C23.1111 27.9729 22.9238 27.5208 22.5904 27.1874C22.257 26.854 21.8048 26.6667 21.3333 26.6667H17.7778V3.55556H28.4444V7.11111C28.4444 7.58261 28.6317 8.03479 28.9651 8.36819C29.2985 8.70159 29.7507 8.88889 30.2222 8.88889C30.6937 8.88889 31.1459 8.70159 31.4793 8.36819C31.8127 8.03479 32 7.58261 32 7.11111V1.77778C32 1.30628 31.8127 0.854097 31.4793 0.520699C31.1459 0.187301 30.6937 0 30.2222 0Z" fill="#B9B9B9"/>
</svg>
