<svg width="30" height="26" viewBox="0 0 30 26" fill="none" xmlns="http://www.w3.org/2000/svg">
<path d="M26.8127 2.68293C26.9978 2.68291 27.1755 2.75586 27.3072 2.88596C27.4389 3.01606 27.514 3.19283 27.5163 3.37794V9.67594C27.514 9.86106 27.4389 10.0378 27.3072 10.1679C27.1755 10.298 26.9978 10.371 26.8127 10.371H20.5232C20.3389 10.371 20.1621 10.2977 20.0318 10.1674C19.9015 10.0371 19.8282 9.86027 19.8282 9.67594V3.3951C19.8282 3.21077 19.9015 3.03399 20.0318 2.90365C20.1621 2.77331 20.3389 2.70009 20.5232 2.70009H26.8127M26.8127 0.838145H20.5232C19.8405 0.838145 19.1858 1.10935 18.7031 1.59209C18.2203 2.07483 17.9491 2.72956 17.9491 3.41226V9.71027C17.9491 10.393 18.2203 11.0477 18.7031 11.5304C19.1858 12.0132 19.8405 12.2844 20.5232 12.2844H26.8127C27.4954 12.2844 28.1501 12.0132 28.6328 11.5304C29.1156 11.0477 29.3868 10.393 29.3868 9.71027V3.3951C29.3868 2.7124 29.1156 2.05767 28.6328 1.57493C28.1501 1.09218 27.4954 0.820984 26.8127 0.820984V0.838145ZM26.8127 16.2657C26.9978 16.2657 27.1755 16.3386 27.3072 16.4687C27.4389 16.5988 27.514 16.7756 27.5163 16.9607V23.2587C27.514 23.4438 27.4389 23.6206 27.3072 23.7507C27.1755 23.8808 26.9978 23.9537 26.8127 23.9537H20.5232C20.3389 23.9537 20.1621 23.8805 20.0318 23.7501C19.9015 23.6198 19.8282 23.443 19.8282 23.2587V16.9521C19.8282 16.7678 19.9015 16.591 20.0318 16.4607C20.1621 16.3303 20.3389 16.2571 20.5232 16.2571H26.8127M26.8127 14.3952H20.5232C19.8405 14.3952 19.1858 14.6664 18.7031 15.1491C18.2203 15.6318 17.9491 16.2866 17.9491 16.9693V23.2673C17.9491 23.95 18.2203 24.6047 18.7031 25.0875C19.1858 25.5702 19.8405 25.8414 20.5232 25.8414H26.8127C27.4954 25.8414 28.1501 25.5702 28.6328 25.0875C29.1156 24.6047 29.3868 23.95 29.3868 23.2673V16.9521C29.3868 16.2694 29.1156 15.6147 28.6328 15.1319C28.1501 14.6492 27.4954 14.378 26.8127 14.378V14.3952ZM12.5263 2.92318C12.6424 2.90765 12.7605 2.91607 12.8732 2.9479C12.9859 2.97972 13.0909 3.0343 13.1818 3.10825C13.2726 3.18221 13.3473 3.27398 13.4014 3.37791C13.4554 3.48184 13.4876 3.59574 13.4959 3.71257V22.9069C13.4887 23.0245 13.4573 23.1393 13.4038 23.2443C13.3503 23.3492 13.2757 23.442 13.1847 23.5168C13.0938 23.5917 12.9884 23.647 12.8751 23.6794C12.7618 23.7117 12.6431 23.7204 12.5263 23.7049H3.8258C3.70903 23.7204 3.5903 23.7117 3.47703 23.6794C3.36375 23.647 3.25835 23.5917 3.16739 23.5168C3.07643 23.442 3.00186 23.3492 2.94833 23.2443C2.89479 23.1393 2.86344 23.0245 2.85622 22.9069V3.71257C2.86456 3.59574 2.89673 3.48184 2.95075 3.37791C3.00478 3.27398 3.07951 3.18221 3.17035 3.10825C3.26118 3.0343 3.3662 2.97972 3.47893 2.9479C3.59165 2.91607 3.7097 2.90765 3.8258 2.92318H12.5263ZM12.5263 0.820984H3.8258C1.86948 0.820984 0.282104 2.11662 0.282104 3.71257V22.9069C0.282104 24.5029 1.86948 25.8071 3.8258 25.8071H12.5263C14.4826 25.8071 16.07 24.5029 16.07 22.9069V3.71257C16.07 2.11662 14.4826 0.820984 12.5263 0.820984Z" fill="#656565"/>
</svg>
